<svg xmlns="http://www.w3.org/2000/svg" viewBox="0 0 432.52 361.97"><defs><style>.cls-1{fill:#ff0067;stroke:#fff;stroke-miterlimit:10;}</style></defs><g id="Layer_2" data-name="Layer 2"><path class="cls-1" d="M7084.35,7246.13s45.41-49.41,115.15-46.63-17.37,41.3-17.37,41.3Z" transform="translate(-6883.53 -6946.32)"/><path class="cls-1" d="M7261.89,7236.34s-104.13-179.14-104.13-179.14l-146.91,250.58H6884.4l178.45-304c18-35.52,110.78-104.08,185.57-7.61l-.16-.11C7315.09,7114.45,7352.34,7112,7261.89,7236.34Z" transform="translate(-6883.53 -6946.32)"/><path class="cls-1" d="M7248.55,6996.36l-.29-.3A.7.7,0,0,1,7248.55,6996.36Z" transform="translate(-6883.53 -6946.32)"/><path class="cls-1" d="M7248.61,6996.43c-.11-.11-.19-.19-.35-.37A1,1,0,0,1,7248.61,6996.43Z" transform="translate(-6883.53 -6946.32)"/></g></svg>